<svg width="28" height="28" viewBox="0 0 28 28" fill="none" xmlns="http://www.w3.org/2000/svg">
<path d="M10.4101 4.2584L10.1724 4.68565C10.1355 4.752 10.117 4.78463 10.0978 4.81667C9.90693 5.13527 9.64324 5.40382 9.32777 5.59978C9.29602 5.6195 9.26274 5.63807 9.19694 5.67608C9.13124 5.71403 9.09794 5.73326 9.06498 5.75092C8.73677 5.9267 8.37101 6.02179 7.99874 6.02748C7.96131 6.02805 7.92307 6.02791 7.84705 6.02663L7.35091 6.01829C6.55696 6.00493 6.15876 5.99823 5.80139 6.1098C5.48396 6.20891 5.19158 6.37471 4.94346 6.59612C4.66299 6.8464 4.4629 7.19281 4.06322 7.88639L3.73124 8.46251C3.33268 9.15415 3.13333 9.5001 3.05733 9.86729C2.99009 10.1921 2.99321 10.5274 3.06587 10.8511C3.14789 11.2164 3.35243 11.558 3.76129 12.2408L3.76314 12.2447L4.01031 12.6575C4.04939 12.7228 4.06909 12.7558 4.08728 12.7885C4.26779 13.1132 4.3676 13.4756 4.37951 13.8469C4.38071 13.8843 4.38071 13.9224 4.38071 13.9985C4.38071 14.0741 4.38071 14.1138 4.37951 14.1511C4.36754 14.5232 4.26719 14.8864 4.08594 15.2116C4.06767 15.2443 4.04782 15.2768 4.00855 15.3422L3.75915 15.7576C3.34642 16.4451 3.13975 16.7893 3.05733 17.1567C2.98441 17.4817 2.98239 17.8181 3.05049 18.1441C3.12739 18.5122 3.32821 18.8583 3.72987 19.5503L3.73124 19.5534L4.06144 20.1223L4.0653 20.1286C4.46334 20.8145 4.66284 21.1582 4.94216 21.4064C5.19003 21.6266 5.48195 21.7912 5.79854 21.8897C6.1564 22.0011 6.55546 21.9951 7.35315 21.9817L7.84858 21.9734C7.92361 21.9721 7.96089 21.9699 7.99779 21.9705C8.37082 21.976 8.73733 22.0723 9.06612 22.2486C9.09863 22.2661 9.13115 22.2849 9.1961 22.3224C9.2611 22.3599 9.29342 22.3781 9.32479 22.3976C9.64195 22.5944 9.90717 22.8642 10.0983 23.1848C10.1173 23.2165 10.1354 23.2499 10.1718 23.3156L10.4056 23.7374C10.7945 24.4392 10.9892 24.7901 11.2661 25.0454C11.5112 25.2712 11.8018 25.4418 12.1184 25.5459C12.4762 25.6636 12.8774 25.6635 13.6798 25.6617L14.3356 25.6602C15.1327 25.6584 15.5309 25.6559 15.8863 25.538C16.2007 25.4336 16.4896 25.2642 16.7332 25.0397C17.0085 24.7858 17.2019 24.4385 17.5894 23.742L17.822 23.3239C17.8615 23.2528 17.8811 23.217 17.9017 23.1826C18.0931 22.8649 18.3575 22.5973 18.6729 22.4021C18.707 22.381 18.7423 22.3608 18.813 22.3203C18.8829 22.2803 18.9178 22.2599 18.9528 22.2414C19.2768 22.0703 19.6367 21.9787 20.003 21.9724C20.0426 21.9718 20.0827 21.9723 20.1631 21.9737L20.6386 21.9817C21.439 21.9952 21.8397 22.0011 22.1985 21.8891C22.516 21.79 22.8083 21.6244 23.0564 21.4029C23.3369 21.1527 23.5369 20.8057 23.9366 20.1121L24.2685 19.5361C24.667 18.8444 24.8662 18.4987 24.9422 18.1315C25.0094 17.8067 25.0068 17.4712 24.9341 17.1476C24.852 16.7817 24.6467 16.4389 24.2367 15.7542L23.9895 15.3414C23.9504 15.2761 23.9308 15.243 23.9126 15.2103C23.7321 14.8856 23.6318 14.5236 23.6199 14.1523C23.6187 14.1149 23.6187 14.0768 23.6187 14.0007C23.6187 13.9244 23.6187 13.8864 23.6199 13.8489C23.6319 13.4768 23.7325 13.1125 23.9138 12.7874C23.9297 12.7588 23.9469 12.7301 23.9772 12.6798L24.2406 12.2409C24.6534 11.5534 24.8595 11.2098 24.9419 10.8425C25.0148 10.5175 25.0178 10.1808 24.9497 9.85476C24.8728 9.48672 24.6716 9.14 24.2702 8.44834L23.935 7.87084C23.5367 7.18459 23.337 6.84048 23.0576 6.59223C22.8097 6.37201 22.5179 6.20719 22.2013 6.10867C21.8461 5.99811 21.4501 6.00477 20.6639 6.01801L20.1512 6.02663C20.0761 6.0279 20.0388 6.02804 20.0019 6.0275C19.6289 6.02197 19.2621 5.92722 18.9333 5.75092C18.9009 5.73351 18.8681 5.71458 18.8033 5.67718C18.7384 5.63964 18.706 5.62021 18.6746 5.60074C18.3574 5.4039 18.092 5.13386 17.9008 4.81326C17.8821 4.78192 17.8643 4.74967 17.8287 4.68557L17.8277 4.68337L17.5939 4.26155C17.205 3.55972 17.0102 3.20821 16.7332 2.95293C16.4882 2.72709 16.1979 2.55672 15.8814 2.45258C15.5257 2.33555 15.1268 2.33646 14.3337 2.33826L13.6639 2.33979C12.8668 2.34159 12.4686 2.34257 12.1132 2.46055C11.7988 2.56493 11.5099 2.73523 11.2663 2.95981C10.9913 3.2134 10.7978 3.56122 10.4111 4.25638L10.4101 4.2584Z" stroke="#292828" stroke-width="2" stroke-linecap="round" stroke-linejoin="round"/>
<path d="M14 18.6663C16.5773 18.6663 18.6666 16.5769 18.6666 13.9996C18.6666 11.4223 16.5773 9.33295 14 9.33295C11.4226 9.33295 9.33329 11.4223 9.33329 13.9996C9.33329 16.5769 11.4226 18.6663 14 18.6663Z" stroke="#292828" stroke-width="2" stroke-linecap="round" stroke-linejoin="round"/>
</svg>
