<svg width="24" height="26" viewBox="0 0 24 26" fill="none" xmlns="http://www.w3.org/2000/svg">
<path d="M8.41008 3.2584L8.1724 3.68565C8.13549 3.752 8.11697 3.78463 8.09777 3.81667C7.90693 4.13527 7.64324 4.40382 7.32777 4.59978C7.29602 4.6195 7.26274 4.63807 7.19694 4.67608C7.13124 4.71403 7.09794 4.73326 7.06498 4.75092C6.73677 4.9267 6.37101 5.02179 5.99874 5.02748C5.96131 5.02805 5.92307 5.02791 5.84705 5.02663L5.35091 5.01829C4.55696 5.00493 4.15876 4.99823 3.80139 5.1098C3.48396 5.20891 3.19158 5.37471 2.94346 5.59612C2.66299 5.8464 2.4629 6.19281 2.06322 6.88639L1.73124 7.46251C1.33268 8.15415 1.13333 8.5001 1.05733 8.86729C0.990094 9.19215 0.99321 9.52739 1.06587 9.85107C1.14789 10.2164 1.35243 10.558 1.76129 11.2408L1.76314 11.2447L2.01031 11.6575C2.04939 11.7228 2.06909 11.7558 2.08728 11.7885C2.26779 12.1132 2.3676 12.4756 2.37951 12.8469C2.38071 12.8843 2.38071 12.9224 2.38071 12.9985C2.38071 13.0741 2.38071 13.1138 2.37951 13.1511C2.36754 13.5232 2.26719 13.8864 2.08594 14.2116C2.06767 14.2443 2.04782 14.2768 2.00855 14.3422L1.75915 14.7576C1.34642 15.4451 1.13975 15.7893 1.05733 16.1567C0.98441 16.4817 0.982392 16.8181 1.05049 17.1441C1.12739 17.5122 1.32821 17.8583 1.72987 18.5503L1.73124 18.5534L2.06144 19.1223L2.0653 19.1286C2.46334 19.8145 2.66284 20.1582 2.94216 20.4064C3.19003 20.6266 3.48195 20.7912 3.79854 20.8897C4.1564 21.0011 4.55546 20.9951 5.35315 20.9817L5.84858 20.9734C5.92361 20.9721 5.96089 20.9699 5.99779 20.9705C6.37082 20.976 6.73733 21.0723 7.06612 21.2486C7.09863 21.2661 7.13115 21.2849 7.1961 21.3224C7.2611 21.3599 7.29342 21.3781 7.32479 21.3976C7.64195 21.5944 7.90717 21.8642 8.09834 22.1848C8.11725 22.2165 8.13544 22.2499 8.17183 22.3156L8.40559 22.7374C8.79452 23.4392 8.98916 23.7901 9.26614 24.0454C9.51118 24.2712 9.80182 24.4418 10.1184 24.5459C10.4762 24.6636 10.8774 24.6635 11.6798 24.6617L12.3356 24.6602C13.1327 24.6584 13.5309 24.6559 13.8863 24.538C14.2007 24.4336 14.4896 24.2642 14.7332 24.0397C15.0085 23.7858 15.2019 23.4385 15.5894 22.742L15.822 22.3239C15.8615 22.2528 15.8811 22.217 15.9017 22.1826C16.0931 21.8649 16.3575 21.5973 16.6729 21.4021C16.707 21.381 16.7423 21.3608 16.813 21.3203C16.8829 21.2803 16.9178 21.2599 16.9528 21.2414C17.2768 21.0703 17.6367 20.9787 18.003 20.9724C18.0426 20.9718 18.0827 20.9723 18.1631 20.9737L18.6386 20.9817C19.439 20.9952 19.8397 21.0011 20.1985 20.8891C20.516 20.79 20.8083 20.6244 21.0564 20.4029C21.3369 20.1527 21.5369 19.8057 21.9366 19.1121L22.2685 18.5361C22.667 17.8444 22.8662 17.4987 22.9422 17.1315C23.0094 16.8067 23.0068 16.4712 22.9341 16.1476C22.852 15.7817 22.6467 15.4389 22.2367 14.7542L21.9895 14.3414C21.9504 14.2761 21.9308 14.243 21.9126 14.2103C21.7321 13.8856 21.6318 13.5236 21.6199 13.1523C21.6187 13.1149 21.6187 13.0768 21.6187 13.0007C21.6187 12.9244 21.6187 12.8864 21.6199 12.8489C21.6319 12.4768 21.7325 12.1125 21.9138 11.7874C21.9297 11.7588 21.9469 11.7301 21.9772 11.6798L22.2406 11.2409C22.6534 10.5534 22.8595 10.2098 22.9419 9.84246C23.0148 9.51746 23.0178 9.1808 22.9497 8.85476C22.8728 8.48672 22.6716 8.14 22.2702 7.44834L21.935 6.87084C21.5367 6.18459 21.337 5.84048 21.0576 5.59223C20.8097 5.37201 20.5179 5.20719 20.2013 5.10867C19.8461 4.99811 19.4501 5.00477 18.6639 5.01801L18.1512 5.02663C18.0761 5.0279 18.0388 5.02804 18.0019 5.0275C17.6289 5.02197 17.2621 4.92722 16.9333 4.75092C16.9009 4.73351 16.8681 4.71458 16.8033 4.67718C16.7384 4.63964 16.706 4.62021 16.6746 4.60074C16.3574 4.4039 16.092 4.13386 15.9008 3.81326C15.8821 3.78192 15.8643 3.74967 15.8287 3.68557L15.8277 3.68337L15.5939 3.26155C15.205 2.55972 15.0102 2.20821 14.7332 1.95293C14.4882 1.72709 14.1979 1.55672 13.8814 1.45258C13.5257 1.33555 13.1268 1.33646 12.3337 1.33826L11.6639 1.33979C10.8668 1.34159 10.4686 1.34257 10.1132 1.46055C9.79882 1.56493 9.50988 1.73523 9.26632 1.95981C8.99129 2.2134 8.7978 2.56122 8.41108 3.25638L8.41008 3.2584Z" stroke="#292828" stroke-width="2" stroke-linecap="round" stroke-linejoin="round"/>
<path d="M12 17.6663C14.5773 17.6663 16.6666 15.5769 16.6666 12.9996C16.6666 10.4223 14.5773 8.33295 12 8.33295C9.42263 8.33295 7.33329 10.4223 7.33329 12.9996C7.33329 15.5769 9.42263 17.6663 12 17.6663Z" stroke="#292828" stroke-width="2" stroke-linecap="round" stroke-linejoin="round"/>
</svg>
