<svg width="395" height="395" viewBox="0 0 395 395" fill="none" xmlns="http://www.w3.org/2000/svg">
<g clip-path="url(#clip0_47_157)">
<mask id="mask0_47_157" style="mask-type:luminance" maskUnits="userSpaceOnUse" x="63" y="277" width="25" height="118">
<path d="M63.3646 277.064H87.9051V394.248H63.3646V277.064Z" fill="white"/>
</mask>
<g mask="url(#mask0_47_157)">
<mask id="mask1_47_157" style="mask-type:luminance" maskUnits="userSpaceOnUse" x="63" y="277" width="25" height="118">
<path d="M75.6349 277.064C78.8883 277.064 82.0095 278.357 84.3107 280.659C86.612 282.96 87.9051 286.081 87.9051 289.335V381.98C87.9051 385.234 86.612 388.355 84.3107 390.656C82.0095 392.957 78.8883 394.248 75.6349 394.248C72.3814 394.248 69.2602 392.957 66.959 390.656C64.6577 388.355 63.3646 385.234 63.3646 381.98V289.335C63.3646 286.081 64.6577 282.96 66.959 280.659C69.2602 278.357 72.3814 277.064 75.6349 277.064Z" fill="white"/>
</mask>
<g mask="url(#mask1_47_157)">
<path d="M63.3646 277.064H87.9051V394.206H63.3646V277.064Z" fill="#F7F7F7"/>
</g>
</g>
<mask id="mask2_47_157" style="mask-type:luminance" maskUnits="userSpaceOnUse" x="63" y="192" width="25" height="71">
<path d="M63.3646 192.707H87.9051V262.205H63.3646V192.707Z" fill="white"/>
</mask>
<g mask="url(#mask2_47_157)">
<mask id="mask3_47_157" style="mask-type:luminance" maskUnits="userSpaceOnUse" x="63" y="192" width="25" height="71">
<path d="M75.6349 192.707C78.8883 192.707 82.0095 194 84.3107 196.301C86.612 198.602 87.9051 201.72 87.9051 204.977V249.926C87.9051 253.179 86.612 256.3 84.3107 258.602C82.0095 260.903 78.8883 262.196 75.6349 262.196C72.3814 262.196 69.2602 260.903 66.959 258.602C64.6577 256.3 63.3646 253.179 63.3646 249.926V204.977C63.3646 201.72 64.6577 198.602 66.959 196.301C69.2602 194 72.3814 192.707 75.6349 192.707Z" fill="white"/>
</mask>
<g mask="url(#mask3_47_157)">
<path d="M63.3646 192.707H87.9051V262.205H63.3646V192.707Z" fill="#F7F7F7"/>
</g>
</g>
<mask id="mask4_47_157" style="mask-type:luminance" maskUnits="userSpaceOnUse" x="97" y="210" width="25" height="185">
<path d="M97.7684 210.749H121.654V394.248H97.7684V210.749Z" fill="white"/>
</mask>
<g mask="url(#mask4_47_157)">
<mask id="mask5_47_157" style="mask-type:luminance" maskUnits="userSpaceOnUse" x="97" y="210" width="25" height="185">
<path d="M109.709 210.749C112.878 210.749 115.917 212.007 118.156 214.246C120.396 216.486 121.654 219.522 121.654 222.69V382.307C121.654 385.475 120.396 388.511 118.156 390.75C115.917 392.99 112.878 394.248 109.709 394.248C106.544 394.248 103.505 392.99 101.266 390.75C99.0263 388.511 97.7684 385.475 97.7684 382.307V222.69C97.7684 219.522 99.0263 216.486 101.266 214.246C103.505 212.007 106.544 210.749 109.709 210.749Z" fill="white"/>
</mask>
<g mask="url(#mask5_47_157)">
<path d="M97.7684 210.749H121.654V394.262H97.7684V210.749Z" fill="#F7F7F7"/>
</g>
</g>
<mask id="mask6_47_157" style="mask-type:luminance" maskUnits="userSpaceOnUse" x="307" y="235" width="25" height="160">
<path d="M307.753 235.83H331.635V394.248H307.753V235.83Z" fill="white"/>
</mask>
<g mask="url(#mask6_47_157)">
<mask id="mask7_47_157" style="mask-type:luminance" maskUnits="userSpaceOnUse" x="307" y="235" width="25" height="160">
<path d="M319.694 235.83C322.86 235.83 325.899 237.088 328.138 239.328C330.378 241.567 331.635 244.606 331.635 247.774V382.307C331.635 385.475 330.378 388.511 328.138 390.75C325.899 392.99 322.86 394.248 319.694 394.248C316.526 394.248 313.49 392.99 311.251 390.75C309.011 388.511 307.753 385.475 307.753 382.307V247.774C307.753 244.606 309.011 241.567 311.251 239.328C313.49 237.088 316.526 235.83 319.694 235.83Z" fill="white"/>
</mask>
<g mask="url(#mask7_47_157)">
<path d="M307.753 235.83H331.635V394.248H307.753V235.83Z" fill="#F7F7F7"/>
</g>
</g>
<mask id="mask8_47_157" style="mask-type:luminance" maskUnits="userSpaceOnUse" x="167" y="93" width="25" height="53">
<path d="M167.317 93.7155H191.857V145.001H167.317V93.7155Z" fill="white"/>
</mask>
<g mask="url(#mask8_47_157)">
<mask id="mask9_47_157" style="mask-type:luminance" maskUnits="userSpaceOnUse" x="167" y="93" width="25" height="52">
<path d="M179.587 93.7155C182.84 93.7155 185.962 95.0087 188.263 97.3099C190.564 99.6111 191.857 102.732 191.857 105.986V132.695C191.857 135.949 190.564 139.07 188.263 141.371C185.962 143.672 182.84 144.966 179.587 144.966C176.333 144.966 173.212 143.672 170.911 141.371C168.61 139.07 167.317 135.949 167.317 132.695V105.986C167.317 102.732 168.61 99.6111 170.911 97.3099C173.212 95.0087 176.333 93.7155 179.587 93.7155Z" fill="white"/>
</mask>
<g mask="url(#mask9_47_157)">
<path d="M167.317 93.7155H191.857V145.001H167.317V93.7155Z" fill="#F7F7F7"/>
</g>
</g>
<mask id="mask10_47_157" style="mask-type:luminance" maskUnits="userSpaceOnUse" x="167" y="152" width="25" height="243">
<path d="M167.317 152.063H191.857V394.248H167.317V152.063Z" fill="white"/>
</mask>
<g mask="url(#mask10_47_157)">
<mask id="mask11_47_157" style="mask-type:luminance" maskUnits="userSpaceOnUse" x="167" y="152" width="25" height="243">
<path d="M179.587 152.063C182.84 152.063 185.962 153.356 188.263 155.658C190.564 157.959 191.857 161.08 191.857 164.334V381.98C191.857 385.234 190.564 388.355 188.263 390.656C185.962 392.957 182.84 394.248 179.587 394.248C176.333 394.248 173.212 392.957 170.911 390.656C168.61 388.355 167.317 385.234 167.317 381.98V164.334C167.317 161.08 168.61 157.959 170.911 155.658C173.212 153.356 176.333 152.063 179.587 152.063Z" fill="white"/>
</mask>
<g mask="url(#mask11_47_157)">
<path d="M167.317 152.063H191.857V394.209H167.317V152.063Z" fill="#F7F7F7"/>
</g>
</g>
<mask id="mask12_47_157" style="mask-type:luminance" maskUnits="userSpaceOnUse" x="131" y="149" width="25" height="246">
<path d="M131.196 149.783H155.508V394.248H131.196V149.783Z" fill="white"/>
</mask>
<g mask="url(#mask12_47_157)">
<mask id="mask13_47_157" style="mask-type:luminance" maskUnits="userSpaceOnUse" x="131" y="149" width="25" height="246">
<path d="M143.352 149.783C146.576 149.783 149.668 151.064 151.949 153.345C154.226 155.622 155.508 158.714 155.508 161.938V382.092C155.508 385.316 154.226 388.408 151.949 390.689C149.668 392.969 146.576 394.248 143.352 394.248C140.128 394.248 137.036 392.969 134.758 390.689C132.478 388.408 131.196 385.316 131.196 382.092V161.938C131.196 158.714 132.478 155.622 134.758 153.345C137.036 151.064 140.128 149.783 143.352 149.783Z" fill="white"/>
</mask>
<g mask="url(#mask13_47_157)">
<path d="M131.196 149.783H155.508V394.23H131.196V149.783Z" fill="#F7F7F7"/>
</g>
</g>
<mask id="mask14_47_157" style="mask-type:luminance" maskUnits="userSpaceOnUse" x="204" y="92" width="25" height="303">
<path d="M204.004 92.778H228.315V394.248H204.004V92.778Z" fill="white"/>
</mask>
<g mask="url(#mask14_47_157)">
<mask id="mask15_47_157" style="mask-type:luminance" maskUnits="userSpaceOnUse" x="204" y="92" width="25" height="303">
<path d="M216.16 92.778C219.384 92.778 222.476 94.0594 224.756 96.3371C227.034 98.6177 228.315 101.71 228.315 104.934V382.092C228.315 385.316 227.034 388.408 224.756 390.688C222.476 392.969 219.384 394.248 216.16 394.248C212.936 394.248 209.844 392.969 207.563 390.688C205.285 388.408 204.004 385.316 204.004 382.092V104.934C204.004 101.71 205.285 98.6177 207.563 96.3371C209.844 94.0594 212.936 92.778 216.16 92.778Z" fill="white"/>
</mask>
<g mask="url(#mask15_47_157)">
<path d="M204.004 92.778H228.315V394.204H204.004V92.778Z" fill="#F7F7F7"/>
</g>
</g>
<mask id="mask16_47_157" style="mask-type:luminance" maskUnits="userSpaceOnUse" x="237" y="52" width="26" height="343">
<path d="M237.861 52.8724H262.172V394.248H237.861V52.8724Z" fill="white"/>
</mask>
<g mask="url(#mask16_47_157)">
<mask id="mask17_47_157" style="mask-type:luminance" maskUnits="userSpaceOnUse" x="237" y="52" width="26" height="343">
<path d="M250.017 52.8724C253.241 52.8724 256.333 54.1538 258.61 56.4344C260.891 58.7122 262.172 61.804 262.172 65.028V382.092C262.172 385.316 260.891 388.408 258.61 390.689C256.333 392.969 253.241 394.248 250.017 394.248C246.793 394.248 243.701 392.969 241.42 390.689C239.14 388.408 237.861 385.316 237.861 382.092V65.028C237.861 61.804 239.14 58.7122 241.42 56.4344C243.701 54.1538 246.793 52.8724 250.017 52.8724Z" fill="white"/>
</mask>
<g mask="url(#mask17_47_157)">
<path d="M237.861 52.8724H262.172V394.28H237.861V52.8724Z" fill="#F7F7F7"/>
</g>
</g>
<mask id="mask18_47_157" style="mask-type:luminance" maskUnits="userSpaceOnUse" x="272" y="203" width="26" height="192">
<path d="M272.806 203.369H297.117V394.248H272.806V203.369Z" fill="white"/>
</mask>
<g mask="url(#mask18_47_157)">
<mask id="mask19_47_157" style="mask-type:luminance" maskUnits="userSpaceOnUse" x="272" y="203" width="26" height="192">
<path d="M284.961 203.369C288.185 203.369 291.277 204.651 293.558 206.928C295.836 209.209 297.117 212.301 297.117 215.525V382.092C297.117 385.316 295.836 388.408 293.558 390.688C291.277 392.969 288.185 394.248 284.961 394.248C281.737 394.248 278.645 392.969 276.365 390.688C274.087 388.408 272.806 385.316 272.806 382.092V215.525C272.806 212.301 274.087 209.209 276.365 206.928C278.645 204.651 281.737 203.369 284.961 203.369Z" fill="white"/>
</mask>
<g mask="url(#mask19_47_157)">
<path d="M272.806 203.369H297.117V394.253H272.806V203.369Z" fill="#F7F7F7"/>
</g>
</g>
<mask id="mask20_47_157" style="mask-type:luminance" maskUnits="userSpaceOnUse" x="272" y="123" width="26" height="60">
<path d="M272.806 123.349H297.117V182.608H272.806V123.349Z" fill="white"/>
</mask>
<g mask="url(#mask20_47_157)">
<mask id="mask21_47_157" style="mask-type:luminance" maskUnits="userSpaceOnUse" x="272" y="123" width="26" height="60">
<path d="M284.961 123.349C288.185 123.349 291.277 124.628 293.558 126.908C295.836 129.189 297.117 132.281 297.117 135.505V170.358C297.117 173.583 295.836 176.674 293.558 178.955C291.277 181.236 288.185 182.514 284.961 182.514C281.737 182.514 278.645 181.236 276.365 178.955C274.087 176.674 272.806 173.583 272.806 170.358V135.505C272.806 132.281 274.087 129.189 276.365 126.908C278.645 124.628 281.737 123.349 284.961 123.349Z" fill="white"/>
</mask>
<g mask="url(#mask21_47_157)">
<path d="M272.806 123.349H297.117V182.511H272.806V123.349Z" fill="#F7F7F7"/>
</g>
</g>
<mask id="mask22_47_157" style="mask-type:luminance" maskUnits="userSpaceOnUse" x="167" y="0" width="25" height="42">
<path d="M167.317 -7.62939e-06H191.857V41.5073H167.317V-7.62939e-06Z" fill="white"/>
</mask>
<g mask="url(#mask22_47_157)">
<mask id="mask23_47_157" style="mask-type:luminance" maskUnits="userSpaceOnUse" x="167" y="0" width="25" height="42">
<path d="M179.587 -7.62939e-06C182.84 -7.62939e-06 185.962 1.29315 188.263 3.59438C190.564 5.8956 191.857 9.01681 191.857 12.2703V29.1459C191.857 32.3994 190.564 35.5206 188.263 37.8218C185.962 40.1231 182.84 41.4162 179.587 41.4162C176.333 41.4162 173.212 40.1231 170.911 37.8218C168.61 35.5206 167.317 32.3994 167.317 29.1459V12.2703C167.317 9.01681 168.61 5.8956 170.911 3.59438C173.212 1.29315 176.333 -7.62939e-06 179.587 -7.62939e-06Z" fill="white"/>
</mask>
<g mask="url(#mask23_47_157)">
<path d="M167.317 -7.62939e-06H191.857V41.4133H167.317V-7.62939e-06Z" fill="#F7F7F7"/>
</g>
</g>
</g>
<defs>
<clipPath id="clip0_47_157">
<rect width="395" height="395" fill="white"/>
</clipPath>
</defs>
</svg>
